<?xml version="1.0" encoding="utf-8"?>
<!-- Generator: Adobe Illustrator 24.1.0, SVG Export Plug-In . SVG Version: 6.00 Build 0)  -->
<svg version="1.1" id="Layer_1" xmlns="http://www.w3.org/2000/svg" xmlns:xlink="http://www.w3.org/1999/xlink" x="0px" y="0px"
	 viewBox="0 0 28 30" style="enable-background:new 0 0 28 30;" xml:space="preserve">
<style type="text/css">
	.st0{fill:#707070;}
</style>
<path id="Icon_metro-lock" class="st0" d="M2.66,28.96V13.53h2.89V8.71C5.56,4.45,9.01,1,13.27,1l0,0h0.96
	c4.26,0,7.71,3.45,7.71,7.71l0,0v4.82h2.89v15.43H2.66z M13.02,21.04l-0.72,5.02h2.89l-0.72-5.02c0.99-0.4,1.46-1.53,1.06-2.51
	s-1.53-1.46-2.51-1.06c-0.99,0.4-1.46,1.53-1.06,2.51C12.16,20.47,12.54,20.85,13.02,21.04z M19.05,9.19c0-2.93-2.37-5.3-5.3-5.3
	c-2.93,0-5.3,2.37-5.3,5.3c0,0,0,0,0,0v4.34h10.6V9.19z"/>
</svg>
