<?xml version="1.0" encoding="utf-8"?>
<!-- Generator: Adobe Illustrator 24.1.0, SVG Export Plug-In . SVG Version: 6.00 Build 0)  -->
<svg version="1.1" id="Layer_1" xmlns="http://www.w3.org/2000/svg" xmlns:xlink="http://www.w3.org/1999/xlink" x="0px" y="0px"
	 viewBox="0 0 26 26" style="enable-background:new 0 0 26 26;" xml:space="preserve">
<style type="text/css">
	.st0{fill:#707070;}
</style>
<path id="Icon_material-person-outline" class="st0" d="M13.23,3.87c1.74,0,3.15,1.41,3.15,3.15s-1.41,3.15-3.15,3.15
	c-1.74,0-3.15-1.41-3.15-3.15c0,0,0,0,0,0C10.08,5.28,11.49,3.87,13.23,3.87 M13.23,17.37c4.45,0,9.15,2.19,9.15,3.15v1.65H4.08
	v-1.65C4.08,19.56,8.78,17.37,13.23,17.37 M13.23,1.02c-3.31,0-6,2.69-6,6s2.69,6,6,6s6-2.69,6-6S16.54,1.02,13.23,1.02z
	 M13.23,14.52c-4.01,0-12,2.01-12,6v4.5h24v-4.5C25.23,16.53,17.24,14.52,13.23,14.52z"/>
</svg>
