<?xml version="1.0" encoding="utf-8"?>
<!-- Generator: Adobe Illustrator 24.1.0, SVG Export Plug-In . SVG Version: 6.00 Build 0)  -->
<svg version="1.1" id="Layer_1" xmlns="http://www.w3.org/2000/svg" xmlns:xlink="http://www.w3.org/1999/xlink" x="0px" y="0px"
	 viewBox="0 0 100 100" style="enable-background:new 0 0 100 100;" xml:space="preserve">
<style type="text/css">
	.st0{fill:#30475E;}
</style>
<path id="Path_238" class="st0" d="M93.19,4.55H6.52c-0.77,0-1.4,0.63-1.4,1.4c0,0,0,0,0,0v71.3c0,0.77,0.63,1.4,1.4,1.4
	c0,0,0,0,0,0h32.15c0,0.77,0.63,1.4,1.4,1.4h0v1.4c-0.77,0-1.4,0.63-1.4,1.4s0.63,1.4,1.4,1.4c0.01,2.68,1.91,4.98,4.54,5.48
	c1.92,5.72,8.54,5.84,10.49,0c2.11-0.41,3.81-2,4.35-4.08c0.77,0.08,1.47-0.48,1.55-1.25c0.08-0.77-0.48-1.47-1.25-1.55
	c-0.14,0-0.1,0.21-0.1-1.4c0.77,0,1.4-0.63,1.4-1.4s-0.63-1.4-1.4-1.4h33.55c0.77,0,1.4-0.63,1.4-1.4l0,0V5.95
	C94.59,5.18,93.97,4.55,93.19,4.55C93.19,4.55,93.19,4.55,93.19,4.55z M7.92,7.35H91.8v8.39H7.92V7.35z M42.87,75.85h13.98v2.59
	l-13.98-0.99V75.85z M56.85,73.05H42.87c-0.36-3.8-2.31-6.32-5.23-9c-7.4-6.79-7.89-18.28-1.11-25.68
	c3.22-3.51,7.69-5.61,12.44-5.86c16.97-0.81,25.57,20.05,13.21,31.47c-2.95,2.75-4.89,5.28-5.27,9.07H56.85z M47.62,89.83h4.47
	c-0.6,1.24-2.09,1.75-3.33,1.15C48.27,90.73,47.87,90.33,47.62,89.83z M54.05,87.03h-8.39c-1.47,0-2.69-1.12-2.8-2.59l13.7,0.98
	C56.1,86.4,55.12,87.02,54.05,87.03L54.05,87.03z M42.87,81.63v-1.4l13.98,0.99v1.4L42.87,81.63z M59.64,75.85
	c0-3.93,0.17-5.84,4.45-9.79c8.52-7.84,9.07-21.11,1.22-29.63s-21.11-9.07-29.63-1.22s-9.07,21.11-1.22,29.63
	c0.39,0.42,0.8,0.83,1.22,1.22c4.19,3.87,4.39,5.79,4.39,9.79H7.92V18.53H91.8v57.32H59.64z"/>
<path id="Path_239" class="st0" d="M13.51,10.14c-0.77,0-1.4,0.63-1.4,1.4c0,0.77,0.63,1.4,1.4,1.4c0.77,0,1.4-0.63,1.4-1.4
	C14.91,10.77,14.28,10.14,13.51,10.14C13.51,10.14,13.51,10.14,13.51,10.14z"/>
<path id="Path_240" class="st0" d="M20.5,10.14c-0.77,0-1.4,0.63-1.4,1.4c0,0.77,0.63,1.4,1.4,1.4c0.77,0,1.4-0.63,1.4-1.4l0,0
	C21.9,10.77,21.27,10.14,20.5,10.14z"/>
<path id="Path_241" class="st0" d="M27.49,10.14c-0.77,0-1.4,0.63-1.4,1.4c0,0.77,0.63,1.4,1.4,1.4s1.4-0.63,1.4-1.4l0,0
	C28.89,10.77,28.26,10.14,27.49,10.14z"/>
<path id="Path_242" class="st0" d="M48.46,47.89h5.59c0.77,0,1.4-0.63,1.4-1.4c0-0.77-0.63-1.4-1.4-1.4c0,0,0,0,0,0h-2.8V43.7
	c0-0.77-0.63-1.4-1.4-1.4s-1.4,0.63-1.4,1.4c0,0,0,0,0,0v1.4c-2.32,0-4.19,1.88-4.19,4.19s1.88,4.19,4.19,4.19h2.8
	c0.77,0,1.4,0.63,1.4,1.4c0,0.77-0.63,1.4-1.4,1.4h-5.59c-0.77,0-1.4,0.63-1.4,1.4c0,0.77,0.63,1.4,1.4,1.4h2.8v1.4
	c0,0.77,0.63,1.4,1.4,1.4s1.4-0.63,1.4-1.4c0,0,0,0,0,0v-1.4c2.32,0,4.19-1.88,4.19-4.19s-1.88-4.19-4.19-4.19h-2.8
	c-0.77,0-1.4-0.63-1.4-1.4C47.07,48.52,47.69,47.9,48.46,47.89L48.46,47.89z"/>
<path id="Path_243" class="st0" d="M79.21,49.29h-4.19c-0.77,0-1.4,0.63-1.4,1.4c0,0.77,0.63,1.4,1.4,1.4h4.19
	c0.77,0,1.4-0.63,1.4-1.4S79.99,49.29,79.21,49.29C79.22,49.29,79.22,49.29,79.21,49.29L79.21,49.29z"/>
<path id="Path_244" class="st0" d="M24.69,49.29H20.5c-0.77,0-1.4,0.63-1.4,1.4s0.63,1.4,1.4,1.4c0,0,0,0,0,0h4.19
	c0.77,0,1.4-0.63,1.4-1.4S25.47,49.29,24.69,49.29C24.7,49.29,24.7,49.29,24.69,49.29L24.69,49.29z"/>
<path id="Path_245" class="st0" d="M48.46,21.33v4.19c0,0.77,0.63,1.4,1.4,1.4c0.77,0,1.4-0.63,1.4-1.4v-4.19
	c0-0.77-0.63-1.4-1.4-1.4C49.09,19.93,48.46,20.56,48.46,21.33z"/>
<path id="Path_246" class="st0" d="M68.63,67.46c-0.55-0.56-1.45-0.57-2.01-0.03s-0.57,1.45-0.03,2.01
	c0.01,0.01,0.02,0.02,0.03,0.03c3.23,3.22,3.2,3.37,3.96,3.37c0.77,0,1.4-0.62,1.4-1.4c0-0.37-0.15-0.73-0.41-1L68.63,67.46z"/>
<path id="Path_247" class="st0" d="M30.09,28.93c-0.55-0.55-1.44-0.55-1.99,0s-0.55,1.44,0,1.99c3.23,3.22,3.2,3.37,3.96,3.37
	c0.77,0.02,1.41-0.59,1.43-1.37c0.01-0.38-0.14-0.75-0.41-1.02L30.09,28.93z"/>
<path id="Path_248" class="st0" d="M30.09,72.44l2.99-2.96c0.56-0.54,0.58-1.44,0.04-2.01s-1.44-0.58-2.01-0.04
	c-0.01,0.01-0.02,0.02-0.03,0.03l-2.98,2.96c-0.54,0.56-0.53,1.46,0.04,2C28.68,72.94,29.54,72.95,30.09,72.44z"/>
<path id="Path_249" class="st0" d="M69.62,28.93l-2.99,2.96c-0.56,0.54-0.58,1.44-0.04,2.01s1.44,0.58,2.01,0.04
	c0.01-0.01,0.02-0.02,0.03-0.03l2.98-2.96c0.57-0.53,0.6-1.43,0.06-2c-0.53-0.57-1.43-0.6-2-0.06
	C69.66,28.9,69.64,28.91,69.62,28.93L69.62,28.93z"/>
</svg>
