<?xml version="1.0" encoding="utf-8"?>
<!-- Generator: Adobe Illustrator 24.1.0, SVG Export Plug-In . SVG Version: 6.00 Build 0)  -->
<svg version="1.1" id="Layer_1" xmlns="http://www.w3.org/2000/svg" xmlns:xlink="http://www.w3.org/1999/xlink" x="0px" y="0px"
	 viewBox="0 0 100 100" style="enable-background:new 0 0 100 100;" xml:space="preserve">
<style type="text/css">
	.st0{fill:#30475E;}
</style>
<path id="Path_215" class="st0" d="M94.98,10.25H55.83V6.05c0-0.77-0.63-1.4-1.4-1.4s-1.4,0.63-1.4,1.4c0,0,0,0,0,0v4.2H8.28
	c-0.77,0-1.4,0.62-1.4,1.39v75.52c0,0.77,0.63,1.4,1.4,1.4c0,0,0,0,0,0h44.75v4.2c0,0.77,0.63,1.4,1.4,1.4c0.77,0,1.4-0.63,1.4-1.4
	v-4.2h39.15c0.77,0,1.4-0.63,1.4-1.4l0,0V11.64C96.38,10.87,95.75,10.25,94.98,10.25z M93.58,13.05v8.39H55.83v-8.39L93.58,13.05z
	 M9.68,13.04h43.35v8.39H9.68V13.04z M9.68,85.76V24.23h43.35v61.53L9.68,85.76z M55.83,85.76V24.23h37.75v61.53L55.83,85.76z"/>
<path id="Path_216" class="st0" d="M15.27,15.84c-0.77,0-1.4,0.63-1.4,1.4s0.63,1.4,1.4,1.4s1.4-0.63,1.4-1.4l0,0
	C16.67,16.47,16.05,15.84,15.27,15.84z"/>
<path id="Path_217" class="st0" d="M22.27,15.84c-0.77,0-1.4,0.63-1.4,1.4s0.63,1.4,1.4,1.4s1.4-0.63,1.4-1.4l0,0
	C23.67,16.47,23.04,15.84,22.27,15.84z"/>
<path id="Path_218" class="st0" d="M29.26,15.84c-0.77,0-1.4,0.63-1.4,1.4s0.63,1.4,1.4,1.4s1.4-0.63,1.4-1.4l0,0
	C30.66,16.47,30.03,15.84,29.26,15.84z"/>
<path id="Path_219" class="st0" d="M47.44,28.42H15.27c-0.77,0-1.4,0.63-1.4,1.4v12.58c0,0.77,0.63,1.4,1.4,1.4h32.16
	c0.77,0,1.4-0.63,1.4-1.4c0,0,0,0,0,0V29.82C48.84,29.05,48.21,28.42,47.44,28.42L47.44,28.42z M46.04,41.01H16.67v-9.79h29.36
	L46.04,41.01z"/>
<path id="Path_220" class="st0" d="M43.94,48c-2.7,0-4.9,2.19-4.9,4.9s2.19,4.9,4.9,4.9s4.9-2.19,4.9-4.9S46.64,48,43.94,48
	L43.94,48z M43.94,55c-1.16,0-2.1-0.94-2.1-2.1c0-1.16,0.94-2.1,2.1-2.1c1.16,0,2.1,0.94,2.1,2.1l0,0C46.04,54.06,45.1,55,43.94,55z
	"/>
<path id="Path_221" class="st0" d="M31.36,57.79c2.7,0,4.9-2.19,4.9-4.9s-2.19-4.9-4.9-4.9c-2.7,0-4.89,2.19-4.89,4.9c0,0,0,0,0,0
	C26.46,55.6,28.65,57.79,31.36,57.79z M31.36,50.8c1.16,0,2.1,0.94,2.1,2.1s-0.94,2.1-2.1,2.1s-2.1-0.94-2.1-2.1l0,0
	C29.26,51.74,30.2,50.8,31.36,50.8L31.36,50.8z"/>
<path id="Path_222" class="st0" d="M18.77,57.79c2.7,0,4.89-2.19,4.89-4.9s-2.19-4.9-4.9-4.9c-2.7,0-4.89,2.19-4.89,4.9c0,0,0,0,0,0
	C13.87,55.6,16.07,57.79,18.77,57.79L18.77,57.79L18.77,57.79z M18.77,50.8c1.16,0,2.1,0.94,2.1,2.1s-0.94,2.1-2.1,2.1
	s-2.1-0.94-2.1-2.1l0,0C16.67,51.74,17.61,50.8,18.77,50.8L18.77,50.8z"/>
<path id="Path_223" class="st0" d="M47.44,60.59h-6.99c-0.77,0-1.4,0.63-1.4,1.4c0,0.77,0.63,1.4,1.4,1.4h6.99
	c0.77,0,1.4-0.63,1.4-1.4C48.84,61.22,48.21,60.59,47.44,60.59L47.44,60.59z"/>
<path id="Path_224" class="st0" d="M47.44,66.18h-6.99c-0.77,0-1.4,0.63-1.4,1.4c0,0.77,0.63,1.4,1.4,1.4h6.99
	c0.77,0,1.4-0.63,1.4-1.4C48.84,66.81,48.21,66.18,47.44,66.18L47.44,66.18z"/>
<path id="Path_225" class="st0" d="M27.86,63.39h6.99c0.77,0,1.4-0.63,1.4-1.4c0-0.77-0.63-1.4-1.4-1.4h-6.99
	c-0.77,0-1.4,0.63-1.4,1.4C26.46,62.76,27.09,63.39,27.86,63.39z"/>
<path id="Path_226" class="st0" d="M27.86,68.98h6.99c0.77,0,1.4-0.63,1.4-1.4c0-0.77-0.63-1.4-1.4-1.4h-6.99
	c-0.77,0-1.4,0.63-1.4,1.4C26.46,68.36,27.09,68.98,27.86,68.98z"/>
<path id="Path_227" class="st0" d="M15.27,63.39h6.99c0.77,0,1.4-0.63,1.4-1.4c0-0.77-0.63-1.4-1.4-1.4h-6.99
	c-0.77,0-1.4,0.63-1.4,1.4C13.88,62.76,14.5,63.39,15.27,63.39z"/>
<path id="Path_228" class="st0" d="M15.27,68.98h6.99c0.77,0,1.4-0.63,1.4-1.4c0-0.77-0.63-1.4-1.4-1.4h-6.99
	c-0.77,0-1.4,0.63-1.4,1.4C13.88,68.36,14.5,68.98,15.27,68.98z"/>
<path id="Path_229" class="st0" d="M47.44,73.17H15.27c-0.77,0-1.4,0.63-1.4,1.4l0,0v5.59c0,0.77,0.63,1.4,1.4,1.4c0,0,0,0,0,0
	h32.16c0.77,0,1.4-0.63,1.4-1.4l0,0v-5.59C48.84,73.8,48.21,73.17,47.44,73.17L47.44,73.17z M46.04,78.77H16.67v-2.79h29.36
	L46.04,78.77z"/>
<path id="Path_230" class="st0" d="M64.62,42c0.55,0.55,1.44,0.55,1.99,0c0.55-0.55,0.55-1.44,0-1.99l0,0l-4.61-4.6l4.61-4.6
	c0.55-0.55,0.55-1.44,0-1.99c-0.55-0.55-1.44-0.55-1.99,0l-5.59,5.59c-0.55,0.55-0.55,1.43-0.01,1.98c0,0,0,0,0.01,0.01L64.62,42z"
	/>
<path id="Path_231" class="st0" d="M84.79,28.83c-0.55-0.55-1.44-0.55-1.99,0c-0.55,0.55-0.55,1.44,0,1.99l4.62,4.6l-4.61,4.6
	c-0.55,0.55-0.55,1.43,0,1.98c0.26,0.26,0.62,0.41,1,0.41c0.78,0,0.42,0.17,6.59-6c0.55-0.55,0.55-1.43,0.01-1.98c0,0,0,0-0.01-0.01
	L84.79,28.83z"/>
<path id="Path_232" class="st0" d="M72.4,41.75l6.99-11.19c0.41-0.66,0.21-1.52-0.45-1.93s-1.52-0.21-1.93,0.45l-6.99,11.19
	c-0.41,0.66-0.21,1.52,0.45,1.93C71.13,42.61,71.99,42.41,72.4,41.75L72.4,41.75L72.4,41.75z"/>
<path id="Path_233" class="st0" d="M89.39,48H60.02c-0.77,0-1.4,0.63-1.4,1.4c0,0.77,0.63,1.4,1.4,1.4h29.37
	c0.77,0,1.4-0.63,1.4-1.4C90.79,48.63,90.16,48,89.39,48z"/>
<path id="Path_234" class="st0" d="M60.02,57.8H79.6c0.77,0,1.4-0.63,1.4-1.4c0-0.77-0.63-1.4-1.4-1.4H60.02
	c-0.77,0-1.4,0.63-1.4,1.4C58.63,57.17,59.25,57.79,60.02,57.8z"/>
<path id="Path_235" class="st0" d="M60.02,64.79h25.17c0.77,0,1.4-0.63,1.4-1.4c0-0.77-0.63-1.4-1.4-1.4H60.02
	c-0.77,0-1.4,0.63-1.4,1.4C58.63,64.16,59.25,64.79,60.02,64.79z"/>
<path id="Path_236" class="st0" d="M89.39,68.98H60.02c-0.77,0-1.4,0.63-1.4,1.4c0,0.77,0.63,1.4,1.4,1.4h29.37
	c0.77,0,1.4-0.63,1.4-1.4C90.79,69.61,90.16,68.98,89.39,68.98z"/>
<path id="Path_237" class="st0" d="M82.4,75.97H60.02c-0.77,0-1.4,0.63-1.4,1.4c0,0.77,0.63,1.4,1.4,1.4H82.4
	c0.77,0,1.4-0.63,1.4-1.4C83.8,76.6,83.17,75.97,82.4,75.97z"/>
</svg>
