<?xml version="1.0" encoding="utf-8"?>
<!-- Generator: Adobe Illustrator 24.1.0, SVG Export Plug-In . SVG Version: 6.00 Build 0)  -->
<svg version="1.1" id="Layer_1" xmlns="http://www.w3.org/2000/svg" xmlns:xlink="http://www.w3.org/1999/xlink" x="0px" y="0px"
	 viewBox="0 0 100 100" style="enable-background:new 0 0 100 100;" xml:space="preserve">
<style type="text/css">
	.st0{fill:#30475E;}
</style>
<g id="Teamwork" transform="translate(0.225 -2)">
	<path id="Path_250" class="st0" d="M77.66,56.29c-4.31-0.01-8.49,1.43-11.89,4.07c-2.57-1.49-1.13-0.15-1.62-4.25
		c5.95-3.46,5.74-1.49-0.25-11.89c-0.41-0.71-1.32-0.95-2.03-0.54c0,0,0,0,0,0l-3.63,2.2c-3.17-2.41-2.87-0.97-2.87-2.45
		c21-6.77,15.77-37.67-5.95-37.67c-17.83,0-26.16,22.41-12.53,34.03c1.93,1.63,4.17,2.87,6.58,3.64c0,1.49,0.31,0-2.87,2.39
		l-3.65-2.11c-0.71-0.41-1.62-0.18-2.03,0.53c0,0,0,0,0,0l-4.46,7.73C30.05,52.69,30.3,53.59,31,54l3.66,2.11
		c-0.51,4.25,1,2.75-1.62,4.25c-8.18-6.85-20.36-5.78-27.22,2.39S0.04,83.11,8.22,89.97c0.14,0.12,0.29,0.24,0.44,0.36l0,0
		c16.99,12.73,35.95-3.27,31.08-20.1c1.62-0.94,0-0.49,3.74,1.16v4.22c0,0.82,0.67,1.49,1.49,1.49l0,0h8.92
		c0.82,0,1.49-0.67,1.49-1.49l0,0v-4.22c3.64-1.59,2.14-2.08,3.74-1.16c-5.23,18.04,15.68,32.41,31.08,20.09
		C103.85,78.58,95.49,56.29,77.66,56.29z M44.96,38.45c-0.33,0-1.49,0.12-1.49,1.84c-1.39-0.53-2.69-1.26-3.86-2.17l0.55-1.65
		c1.71-5.11,7.24-7.87,12.36-6.16c2.91,0.97,5.19,3.25,6.16,6.16l0.55,1.65c-1.18,0.91-2.48,1.64-3.86,2.17
		c0-1.71-1.13-1.84-1.49-1.84H44.96z M44.43,21.84v-1.62c-0.04-2.76,2.16-5.03,4.92-5.06c2.76-0.04,5.03,2.16,5.06,4.92
		c0,0.05,0,0.09,0,0.14v1.62c0.04,2.76-2.16,5.03-4.92,5.06c-2.76,0.04-5.03-2.16-5.06-4.92C44.43,21.93,44.43,21.89,44.43,21.84z
		 M49.42,8.73c9.03,0.01,16.34,7.33,16.34,16.36c0,4-1.47,7.85-4.12,10.84c-1.08-3.59-3.69-6.51-7.13-8
		c2.97-2.45,2.88-5.2,2.88-7.71c0-4.4-3.56-7.97-7.96-7.97s-7.97,3.56-7.97,7.96c0,0,0,0,0,0.01c0,2.67,0,5.28,2.88,7.71
		c-3.44,1.49-6.05,4.41-7.13,8c-5.99-6.75-5.38-17.09,1.37-23.08C41.57,10.19,45.42,8.73,49.42,8.73z M16.19,72.37v-1.62
		c-0.04-2.76,2.16-5.03,4.92-5.06c2.76-0.04,5.03,2.16,5.06,4.92c0,0.05,0,0.09,0,0.14v1.62c0.04,2.76-2.17,5.03-4.92,5.06
		c-2.76,0.04-5.03-2.17-5.06-4.92C16.19,72.46,16.19,72.41,16.19,72.37z M30.78,88.83c-5.73,4.15-13.47,4.15-19.2,0
		c-0.28-0.21-0.3,0,0.34-1.83c1.71-5.11,7.24-7.87,12.36-6.16c2.91,0.97,5.19,3.25,6.16,6.16C31.07,88.89,31.1,88.61,30.78,88.83z
		 M33.4,86.45c-1.08-3.59-3.69-6.52-7.13-8c2.97-2.45,2.88-5.2,2.88-7.71c0-4.4-3.57-7.97-7.97-7.97s-7.97,3.57-7.97,7.97
		c0,2.68,0,5.28,2.88,7.71c-3.44,1.48-6.06,4.41-7.13,8c-5.98-6.77-5.34-17.1,1.42-23.08c5.61-4.96,13.88-5.47,20.06-1.24
		c-0.52,1-0.4,0.73,4.46,9.15c0.41,0.71,1.31,0.96,2.03,0.56c0.04-0.03,0.09-0.05,0.13-0.08C38.32,76.97,36.95,82.45,33.4,86.45z
		 M57.18,66.81c-2.97,2.51-4.74,1.8-4.74,3.57v3.75h-5.98c0-3.31,0.33-4.68-1-5.16c-3.64-1.28-3.94-3.2-5.45-2.32l-3.26,1.87
		l-2.97-5.14c2.88-1.67,4.22-2.07,3.97-3.43c-1.14-6.2,2.6-3.98-3.97-7.77l2.97-5.14L40,48.85c1.56,0.89,1.72-1,5.45-2.32
		c1.22-0.43,1-1.19,1-5.16h5.94v3.74c0,1.77,1.81,1.06,4.74,3.57c0.98,0.85,1.49,0.27,4.96-1.71l2.97,5.14
		c-5.36,3.14-3.76,1.8-3.76,5.65s-1.59,2.51,3.76,5.6l-2.97,5.14c-2.88-1.65-3.89-2.62-4.96-1.71L57.18,66.81z M72.71,72.37v-1.62
		c-0.04-2.76,2.16-5.03,4.92-5.06c2.76-0.04,5.03,2.16,5.06,4.92c0,0.05,0,0.09,0,0.14v1.62c0.04,2.76-2.16,5.03-4.92,5.06
		c-2.76,0.04-5.03-2.16-5.06-4.92C72.71,72.46,72.71,72.41,72.71,72.37z M87.26,88.83c-5.73,4.15-13.47,4.15-19.2,0
		c-0.28-0.21-0.3,0,0.34-1.83c1.71-5.11,7.24-7.87,12.36-6.16c2.91,0.97,5.19,3.25,6.16,6.16C87.54,88.89,87.57,88.61,87.26,88.83
		L87.26,88.83z M89.88,86.45c-1.08-3.59-3.69-6.52-7.13-8c2.97-2.45,2.88-5.2,2.88-7.71c0-4.4-3.57-7.96-7.97-7.96
		c-4.4,0-7.96,3.57-7.96,7.96c0,2.68,0,5.28,2.88,7.71c-3.44,1.48-6.06,4.41-7.13,8c-3.55-4-4.92-9.48-3.67-14.68
		c0.67,0.48,1.6,0.32,2.07-0.35c0.03-0.04,0.06-0.08,0.08-0.13c4.96-8.6,4.98-8.17,4.46-9.15c7.44-5.11,17.62-3.21,22.73,4.23
		C95.36,72.56,94.85,80.84,89.88,86.45z"/>
	<path id="Path_251" class="st0" d="M49.42,51.83c-3.28,0-5.94,2.66-5.94,5.94s2.66,5.94,5.94,5.94s5.94-2.66,5.94-5.94l0,0
		C55.37,54.49,52.7,51.83,49.42,51.83z M49.42,60.74c-1.64,0-2.97-1.33-2.97-2.97s1.33-2.97,2.97-2.97s2.97,1.33,2.97,2.97
		S51.06,60.74,49.42,60.74L49.42,60.74z"/>
</g>
</svg>
